<svg width="2014" height="523" viewBox="0 0 2014 523" fill="none" xmlns="http://www.w3.org/2000/svg">
<path d="M127.95 173.296L12.1662 285.477C4.38973 293.011 0 303.376 0 314.204V432.84C0 454.931 17.9086 472.84 40 472.84H109.673H446.5H745.28H975.221C979.757 472.84 984.26 473.611 988.537 475.121L1117.69 520.718C1121.97 522.228 1126.47 523 1131 523H1317.33C1321.46 523 1325.56 522.361 1329.49 521.106L1571.86 443.734C1575.8 442.479 1579.9 441.84 1584.03 441.84H1838H1940.32C1954.39 441.84 1967.42 434.448 1974.64 422.373L2008.33 366.064C2012.04 359.858 2014 352.761 2014 345.53V216.259C2014 194.168 1996.09 176.259 1974 176.259H1959.9C1951.33 176.259 1942.98 173.507 1936.09 168.408L1801.28 68.5969C1793.78 63.0413 1784.57 60.2857 1775.24 60.8077L1593.48 70.9852C1583.4 71.5495 1573.91 75.9045 1566.9 83.1763L1452.51 201.968C1444.97 209.798 1434.57 214.222 1423.7 214.222H1336.22C1327.98 214.222 1319.94 211.677 1313.2 206.936L1219.25 140.838C1212.52 136.096 1204.48 133.552 1196.24 133.552H996.378C987.129 133.552 978.166 136.757 971.014 142.622L831.117 257.349C823.966 263.214 815.002 266.42 805.753 266.42H626.477C617.84 266.42 609.436 263.625 602.52 258.452L484.243 169.991C477.327 164.819 468.922 162.024 460.286 162.024H155.784C145.394 162.024 135.412 166.066 127.95 173.296Z" fill="#2A808D" fill-opacity="0.3"/>
<path d="M127.95 143.296L12.1662 255.477C4.38973 263.011 0 273.376 0 284.204V402.84C0 424.931 17.9086 442.84 40 442.84H109.673H446.5H745.28H975.221C979.757 442.84 984.26 443.611 988.537 445.121L1117.69 490.718C1121.97 492.228 1126.47 493 1131 493H1317.33C1321.46 493 1325.56 492.361 1329.49 491.106L1571.86 413.734C1575.8 412.479 1579.9 411.84 1584.03 411.84H1838H1938.77C1952.59 411.84 1965.44 404.7 1972.74 392.957L2007.97 336.278C2011.91 329.94 2014 322.625 2014 315.161V186.259C2014 164.168 1996.09 146.259 1974 146.259H1959.9C1951.33 146.259 1942.98 143.507 1936.09 138.408L1801.28 38.5969C1793.78 33.0413 1784.57 30.2857 1775.24 30.8077L1593.48 40.9852C1583.4 41.5495 1573.91 45.9045 1566.9 53.1763L1452.51 171.968C1444.97 179.798 1434.57 184.222 1423.7 184.222H1336.22C1327.98 184.222 1319.94 181.677 1313.2 176.936L1219.25 110.838C1212.52 106.096 1204.48 103.552 1196.24 103.552H996.378C987.129 103.552 978.166 106.757 971.014 112.622L831.117 227.349C823.966 233.214 815.002 236.42 805.753 236.42H626.477C617.84 236.42 609.436 233.625 602.52 228.452L484.243 139.991C477.327 134.819 468.922 132.024 460.286 132.024H155.784C145.394 132.024 135.412 136.066 127.95 143.296Z" fill="#2A8086"/>
<path d="M128.177 104.983L13.249 208.365C4.81586 215.951 0 226.761 0 238.104V343.292C0 365.384 17.9086 383.292 40 383.292H101.8C106.999 383.292 112.148 382.279 116.959 380.308L306.778 302.569C311.589 300.599 316.739 299.585 321.938 299.585H622.086C630.856 299.585 639.383 302.467 646.354 307.788L734.532 375.089C741.503 380.41 750.03 383.292 758.8 383.292H971.167C978.308 383.292 985.319 385.204 991.472 388.829L1114.75 461.463C1120.91 465.088 1127.92 467 1135.06 467H1315.61C1320.86 467 1326.05 465.968 1330.9 463.962L1440.71 418.538L1572.9 384.552C1576.15 383.716 1579.5 383.292 1582.86 383.292H1777.25C1785.34 383.292 1793.24 380.839 1799.9 376.256L1936.46 282.39C1943.13 277.807 1951.03 275.354 1959.12 275.354H1974C1996.09 275.354 2014 257.445 2014 235.354V147.939C2014 125.847 1996.09 107.939 1974 107.939H1959.12C1951.03 107.939 1943.13 105.485 1936.46 100.902L1800.85 7.68683C1793.6 2.70181 1784.91 0.247621 1776.12 0.704499L1592.73 10.2382C1583.1 10.7386 1573.98 14.6979 1567.04 21.3878L1452.33 131.98C1444.87 139.168 1434.92 143.184 1424.57 143.184H1335.46C1327.69 143.184 1320.09 140.921 1313.59 136.672L1218.87 74.7992C1212.36 70.5504 1204.76 68.2877 1196.99 68.2877H995.569C986.815 68.2877 978.302 71.1595 971.337 76.4626L830.794 183.471C823.829 188.774 815.316 191.646 806.562 191.646H625.699C617.544 191.646 609.583 189.153 602.885 184.502L483.878 101.866C477.179 97.2145 469.219 94.7217 461.063 94.7217H154.928C145.05 94.7217 135.521 98.3769 128.177 104.983Z" fill="#2A808D" fill-opacity="0.3"/>
<path d="M38.7216 85.4707H30.4331L33.9853 120.203L34.7747 147.832H44.2472L40.3003 120.203L38.7216 85.4707Z" fill="#216E7A"/>
<path d="M43.0984 152.568H36.4384C35.9707 152.568 35.6056 152.972 35.6532 153.438L39.1164 187.301L39.8839 214.162C39.8961 214.589 40.2458 214.929 40.6729 214.929H48.4682C48.9485 214.929 49.3176 214.503 49.2496 214.028L45.4314 187.301L43.8869 153.321C43.8678 152.9 43.5204 152.568 43.0984 152.568Z" fill="#216E7A"/>
<path d="M59.2288 176.249L51.6318 176.249C51.1676 176.249 50.8036 176.648 50.8457 177.11L52.4826 195.078L52.4826 211.288C52.4826 211.757 52.8894 212.123 53.3559 212.073L61.4505 211.208C61.9006 211.16 62.2181 210.744 62.1459 210.297L59.6519 194.871C59.6443 194.823 59.641 194.776 59.642 194.728L60.018 177.055C60.0274 176.613 59.6713 176.249 59.2288 176.249Z" fill="#216E7A"/>
<path d="M48.2292 219.665H41.5693C41.1016 219.665 40.7364 220.069 40.784 220.535L44.2406 254.332C44.245 254.376 44.2459 254.42 44.243 254.463L43.5121 265.793C43.4827 266.248 43.8439 266.633 44.2998 266.633H51.9736C52.4698 266.633 52.8429 266.181 52.7486 265.694L50.5733 254.454C50.566 254.417 50.5614 254.378 50.5597 254.34L49.0178 220.419C48.9986 219.997 48.6513 219.665 48.2292 219.665Z" fill="#216E7A"/>
<path d="M25.8547 234.18C30.4477 231.441 37.0302 222.265 37.5099 215.322C37.5399 214.887 37.1901 214.615 36.8255 214.854C33.9606 216.733 25.1101 226.507 24.8747 233.602C24.8571 234.132 25.3995 234.451 25.8547 234.18Z" fill="#216E7A"/>
<path d="M22.791 207.966C24.4806 212.864 31.0162 213.676 35.5683 213.476C35.8627 213.463 36.1487 213.277 36.1336 212.982C36.0153 210.67 28.4636 207.472 23.5012 207.076C23.0044 207.036 22.6284 207.495 22.791 207.966Z" fill="#216E7A"/>
<path d="M48.4336 166.378C54.1606 165.148 63.8952 158.073 66.1929 151.422C66.3352 151.01 66.07 150.64 65.6478 150.749C62.1272 151.657 49.6663 158.681 47.6594 165.558C47.5162 166.049 47.9338 166.486 48.4336 166.378Z" fill="#216E7A"/>
<path d="M127.489 187.537C124.035 192.268 113.612 198.282 106.601 197.675C106.167 197.637 105.937 197.244 106.208 196.903C108.47 194.056 119.957 185.532 127.055 186.496C127.561 186.565 127.791 187.124 127.489 187.537Z" fill="#216E7A"/>
<path d="M137.463 105.145C131.303 110.683 114.723 115.748 105.755 112.29C105.348 112.134 105.211 111.684 105.541 111.398C109.049 108.353 128.409 99.8287 137.303 104.01C137.756 104.223 137.835 104.81 137.463 105.145Z" fill="#216E7A"/>
<path d="M111.925 87.2624C112.33 93.7412 107.725 106.092 101.467 110.077C101.099 110.311 100.668 110.146 100.656 109.711C100.548 105.815 104.342 90.3828 110.945 86.7128C111.382 86.4697 111.894 86.7629 111.925 87.2624Z" fill="#216E7A"/>
<path d="M123.619 130.392C120.663 124.144 110.903 115.32 104.238 115.275C103.802 115.272 103.522 115.652 103.72 116.04C105.564 119.65 116.355 131.849 123.098 131.345C123.569 131.31 123.821 130.819 123.619 130.392Z" fill="#216E7A"/>
<path d="M76.4235 84.3673L68.1487 83.892L69.7033 118.771L68.907 146.399L78.364 146.942L76.0079 119.133L76.4235 84.3673Z" fill="#216E7A"/>
<path d="M100.647 62.3393L92.4675 61L90.3606 95.8502L86.6752 123.243L96.0232 124.774L96.5926 96.8706L100.647 62.3393Z" fill="#216E7A"/>
<path d="M110.069 135.619L99.3816 133.623L96.5016 168.443L91.585 195.65L103.799 197.932L104.644 169.964L110.069 135.619Z" fill="#216E7A"/>
<path d="M76.9451 151.605L70.2961 151.223C69.8292 151.196 69.4414 151.579 69.4623 152.046L70.9779 186.052L70.2038 212.913C70.1915 213.34 70.5211 213.7 70.9476 213.724L78.73 214.171C79.2096 214.199 79.6023 213.795 79.5618 213.317L77.2826 186.414L77.6892 152.403C77.6942 151.981 77.3664 151.629 76.9451 151.605Z" fill="#216E7A"/>
<path d="M94.1239 129.262L87.5515 128.186C87.0899 128.11 86.6642 128.45 86.636 128.917L84.5818 162.895L80.9986 189.527C80.9417 189.951 81.2319 190.342 81.6534 190.411L89.3462 191.671C89.8203 191.749 90.2532 191.388 90.263 190.908L90.8138 163.915L94.7803 130.133C94.8295 129.714 94.5403 129.33 94.1239 129.262Z" fill="#216E7A"/>
<path d="M101.542 202.332L92.4723 200.637C92.0028 200.55 91.5506 200.893 91.5114 201.367L88.7054 235.292L83.8541 263.966C83.7791 264.41 84.0927 264.814 84.5428 264.855L94.7066 265.767C95.1655 265.809 95.5743 265.454 95.5946 264.998L96.8483 236.813L102.157 203.202C102.222 202.79 101.952 202.408 101.542 202.332Z" fill="#216E7A"/>
<path d="M78.2313 218.887L71.5701 218.504C71.1035 218.477 70.716 218.859 70.7361 219.326L71.8731 245.657C71.8748 245.695 71.8737 245.734 71.8698 245.772L69.9826 264.266C69.9382 264.701 70.2559 265.089 70.691 265.132L80.8037 266.122C81.3091 266.171 81.729 265.738 81.6633 265.234L79.0467 245.182L78.9754 219.673C78.9742 219.255 78.6481 218.911 78.2313 218.887Z" fill="#216E7A"/>
<path d="M56.3505 129.094C54.2679 135.277 60.7323 142.083 65.723 146.019C65.9489 146.198 66.2745 146.25 66.4645 146.033C68.3236 143.919 62.5234 133.66 57.4934 128.833C57.1202 128.475 56.5156 128.603 56.3505 129.094Z" fill="#216E7A"/>
<path d="M118.134 218.119C112.147 217.702 108.23 209.609 106.34 203.808C106.252 203.537 106.314 203.213 106.584 203.123C109.027 202.303 116.118 210.994 118.79 217.148C118.998 217.629 118.657 218.156 118.134 218.119Z" fill="#216E7A"/>
<path d="M61.0909 215.291L53.4939 215.291C53.0296 215.291 52.6656 215.69 52.7078 216.152L54.3447 234.119L54.3447 265.36C54.3447 265.829 54.7514 266.195 55.2179 266.145L63.3734 265.274C63.8001 265.228 64.1122 264.85 64.0762 264.422L61.5025 233.841L61.8801 216.097C61.8895 215.655 61.5334 215.291 61.0909 215.291Z" fill="#216E7A"/>
<path d="M1139.51 283.5C1140.75 265.157 1124.42 237.994 1119.01 237C1119.01 237 1089.01 283.5 1075.01 311.5C1075.45 315.844 1077.27 318.142 1077.01 322.5C1076.74 327 1071.35 329.541 1073.51 333.5C1075.87 337.842 1086.01 335.5 1086.01 335.5C1100.01 333 1101.01 312.5 1102.51 312C1105.01 315.5 1107.65 326.5 1106.51 330.5C1105.51 334 1102.37 335.732 1103.51 339C1104.77 342.637 1108.51 344 1112.01 344C1120.51 344.5 1127.51 338 1132.01 332C1140.51 319 1140.51 296.5 1139.51 283.5Z" fill="#0A5D69"/>
<rect x="1011" y="221" width="123" height="92" rx="46" fill="#F3F6F7"/>
<path d="M1058.42 311.5C1067.92 283.5 1061.92 235.5 1039.42 225C1031.09 225.336 1018.42 233 1018.42 233C1018.42 233 989.449 267.921 986.424 295C986.924 305.5 992.925 322.5 990.924 337C988.424 339.39 987.924 340 986.424 342.5C984.424 346.5 989.924 349 993.924 349C998.924 349 1005.3 347.159 1010.42 342.5C1017.05 336.473 1016.42 328.5 1018.42 321C1021.92 325.5 1021.42 342.5 1018.92 346.5C1015.42 352.5 1015.92 354.5 1018.42 357C1025.42 360.833 1038.92 357 1044.92 349C1053.42 335.5 1054.14 327 1058.42 311.5Z" fill="#0A5D69"/>
<circle cx="984.5" cy="223.5" r="13.5" fill="#0A5D69"/>
<circle cx="1025.5" cy="217.5" r="13.5" fill="#0A5D69"/>
<rect x="971" y="213" width="79" height="71" rx="35.5" fill="#F3F6F7"/>
<ellipse cx="1025.63" cy="242.602" rx="8.85868" ry="11.6027" transform="rotate(-31.8762 1025.63 242.602)" fill="#0A5D69"/>
<ellipse rx="8.85868" ry="11.6027" transform="matrix(-0.978754 -0.205037 -0.205037 0.978754 992.05 252.173)" fill="#0A5D69"/>
<path d="M1004.5 261C1005.23 264.72 1012 266.5 1013 266.5C1014 266.5 1020.48 260.889 1018.5 257C1016.5 253.5 1004 256.5 1004.5 261Z" fill="#0A5D69"/>
<ellipse cx="994.5" cy="250" rx="2.5" ry="3" fill="#F3F6F7"/>
<ellipse cx="1021.5" cy="242" rx="2.5" ry="3" fill="#F3F6F7"/>
<path d="M1081.18 122H1070.68L1075.18 166L1076.18 201H1088.18L1083.18 166L1081.18 122Z" fill="#216E7A"/>
<path d="M1086.73 207H1078.29C1077.7 207 1077.24 207.512 1077.3 208.102L1081.68 251L1082.66 285.029C1082.67 285.57 1083.11 286 1083.66 286H1093.53C1094.14 286 1094.61 285.461 1094.52 284.859L1089.68 251L1087.73 207.955C1087.7 207.421 1087.26 207 1086.73 207Z" fill="#216E7A"/>
<path d="M1107.16 237L1097.54 237C1096.95 237 1096.49 237.505 1096.54 238.091L1098.62 260.852L1098.62 281.387C1098.62 281.982 1099.13 282.445 1099.72 282.382L1109.98 281.286C1110.55 281.225 1110.95 280.698 1110.86 280.132L1107.7 260.59C1107.69 260.53 1107.68 260.47 1107.69 260.409L1108.16 238.021C1108.17 237.461 1107.72 237 1107.16 237Z" fill="#216E7A"/>
<path d="M1093.23 292H1084.79C1084.2 292 1083.74 292.512 1083.8 293.102L1088.17 335.917C1088.18 335.972 1088.18 336.028 1088.18 336.083L1087.25 350.436C1087.21 351.012 1087.67 351.5 1088.25 351.5H1097.97C1098.6 351.5 1099.07 350.927 1098.95 350.31L1096.2 336.072C1096.19 336.024 1096.18 335.976 1096.18 335.927L1094.23 292.955C1094.2 292.421 1093.76 292 1093.23 292Z" fill="#216E7A"/>
<path d="M1064.88 310.387C1070.7 306.918 1079.04 295.294 1079.65 286.498C1079.69 285.947 1079.24 285.602 1078.78 285.905C1075.15 288.286 1063.94 300.667 1063.64 309.656C1063.62 310.327 1064.31 310.731 1064.88 310.387Z" fill="#216E7A"/>
<path d="M1061 277.18C1063.14 283.385 1071.42 284.413 1077.19 284.159C1077.56 284.143 1077.92 283.907 1077.9 283.534C1077.75 280.604 1068.19 276.553 1061.9 276.052C1061.27 276.001 1060.8 276.583 1061 277.18Z" fill="#216E7A"/>
<path d="M1093.49 224.495C1100.74 222.936 1113.07 213.974 1115.98 205.549C1116.16 205.027 1115.83 204.558 1115.29 204.696C1110.83 205.846 1095.05 214.745 1092.51 223.456C1092.32 224.078 1092.85 224.631 1093.49 224.495Z" fill="#216E7A"/>
<path d="M1193.64 251.3C1189.26 257.293 1176.06 264.912 1167.17 264.142C1166.62 264.095 1166.33 263.597 1166.68 263.165C1169.54 259.558 1184.09 248.759 1193.09 249.981C1193.73 250.068 1194.02 250.777 1193.64 251.3Z" fill="#216E7A"/>
<path d="M1206.27 146.924C1198.47 153.939 1177.46 160.355 1166.1 155.976C1165.59 155.777 1165.41 155.207 1165.83 154.845C1170.28 150.987 1194.8 140.189 1206.07 145.486C1206.64 145.756 1206.74 146.5 1206.27 146.924Z" fill="#216E7A"/>
<path d="M1173.92 124.27C1174.43 132.477 1168.6 148.124 1160.67 153.172C1160.2 153.469 1159.66 153.26 1159.64 152.708C1159.51 147.772 1164.31 128.223 1172.68 123.573C1173.23 123.265 1173.88 123.637 1173.92 124.27Z" fill="#216E7A"/>
<path d="M1188.73 178.907C1184.99 170.992 1172.62 159.814 1164.18 159.757C1163.63 159.753 1163.27 160.234 1163.52 160.726C1165.86 165.3 1179.53 180.753 1188.07 180.114C1188.67 180.07 1188.99 179.448 1188.73 178.907Z" fill="#216E7A"/>
<path d="M1128.94 120.602L1118.46 120L1120.43 164.186L1119.42 199.185L1131.4 199.874L1128.42 164.644L1128.94 120.602Z" fill="#216E7A"/>
<path d="M1159.63 92.6967L1149.27 91L1146.6 135.149L1141.93 169.851L1153.77 171.79L1154.5 136.442L1159.63 92.6967Z" fill="#216E7A"/>
<path d="M1171.57 185.529L1158.03 183L1154.38 227.111L1148.15 261.577L1163.63 264.468L1164.7 229.038L1171.57 185.529Z" fill="#216E7A"/>
<path d="M1129.61 205.78L1121.18 205.296C1120.59 205.262 1120.1 205.747 1120.13 206.339L1122.05 249.419L1121.07 283.447C1121.05 283.988 1121.47 284.443 1122.01 284.474L1131.87 285.04C1132.47 285.075 1132.97 284.564 1132.92 283.958L1130.03 249.877L1130.55 206.791C1130.55 206.256 1130.14 205.811 1129.61 205.78Z" fill="#216E7A"/>
<path d="M1151.37 177.476L1143.04 176.112C1142.46 176.017 1141.92 176.447 1141.88 177.039L1139.28 220.082L1134.74 253.821C1134.67 254.357 1135.04 254.853 1135.57 254.941L1145.32 256.537C1145.92 256.635 1146.46 256.179 1146.48 255.57L1147.17 221.375L1152.2 178.579C1152.26 178.048 1151.9 177.562 1151.37 177.476Z" fill="#216E7A"/>
<path d="M1160.77 270.042L1149.28 267.895C1148.68 267.784 1148.11 268.219 1148.06 268.819L1144.5 311.796L1138.36 348.121C1138.26 348.683 1138.66 349.196 1139.23 349.247L1152.11 350.403C1152.69 350.455 1153.21 350.007 1153.23 349.428L1154.82 313.723L1161.54 271.144C1161.63 270.622 1161.29 270.139 1160.77 270.042Z" fill="#216E7A"/>
<path d="M1131.23 291.014L1122.8 290.529C1122.21 290.495 1121.71 290.979 1121.74 291.571L1123.18 324.928C1123.18 324.976 1123.18 325.024 1123.18 325.072L1120.79 348.501C1120.73 349.052 1121.13 349.544 1121.68 349.598L1134.49 350.852C1135.13 350.915 1135.67 350.366 1135.58 349.728L1132.27 324.325L1132.18 292.009C1132.18 291.48 1131.76 291.044 1131.23 291.014Z" fill="#216E7A"/>
<path d="M1103.52 177.262C1100.88 185.096 1109.07 193.718 1115.39 198.704C1115.68 198.93 1116.09 198.996 1116.33 198.722C1118.68 196.043 1111.34 183.047 1104.96 176.932C1104.49 176.478 1103.72 176.641 1103.52 177.262Z" fill="#216E7A"/>
<path d="M1181.78 290.041C1174.2 289.513 1169.24 279.26 1166.84 271.912C1166.73 271.569 1166.81 271.158 1167.15 271.044C1170.25 270.005 1179.23 281.015 1182.62 288.812C1182.88 289.421 1182.45 290.088 1181.78 290.041Z" fill="#216E7A"/>
<path d="M1109.52 286.459L1099.9 286.459C1099.31 286.459 1098.85 286.964 1098.9 287.549L1100.98 310.311L1100.98 349.887C1100.98 350.482 1101.49 350.945 1102.08 350.882L1112.41 349.778C1112.95 349.72 1113.35 349.241 1113.3 348.7L1110.04 309.959L1110.52 287.48C1110.53 286.919 1110.08 286.459 1109.52 286.459Z" fill="#216E7A"/>
<circle cx="1701.07" cy="272.214" r="65.0658" fill="#216E7A"/>
<circle cx="1701.07" cy="227.066" r="65.0658" fill="#216E7A"/>
<rect x="1690.47" y="273.974" width="15.1316" height="118.026" rx="7.56579" fill="#1D6874"/>
<circle cx="306.066" cy="156.214" r="65.0658" fill="#216E7A"/>
<circle cx="306.066" cy="111.066" r="65.0658" fill="#216E7A"/>
<rect x="295.474" y="157.974" width="15.1316" height="118.026" rx="7.56579" fill="#1D6874"/>
<circle cx="860.697" cy="181.712" r="44.6974" fill="#216E7A"/>
<circle cx="860.697" cy="150.697" r="44.6974" fill="#216E7A"/>
<rect x="853.421" y="182.921" width="10.3947" height="81.0789" rx="5.19737" fill="#1D6874"/>
</svg>
