<svg width="1332" height="657" viewBox="0 0 1332 657" fill="none" xmlns="http://www.w3.org/2000/svg">
<g clip-path="url(#clip0)">
<path d="M30.5115 -179L10.5039 409.027L2.87722 522.186C1.32048 545.283 19.6366 564.876 42.7867 564.876H149.272C154.203 564.876 159.091 563.964 163.69 562.187L354.242 488.553C358.841 486.776 363.729 485.864 368.66 485.864H669.959C678.349 485.864 686.526 488.502 693.334 493.405L784.414 558.997C789.773 562.856 796.004 565.328 802.551 566.193L1281.53 629.465C1306.91 632.818 1328.86 611.797 1326.62 586.295L1263.47 -129.487L30.5115 -179Z" fill="#2A8086"/>
<path opacity="0.3" d="M30.5 -153L10.5 435.214L2.8751 548.425C1.31948 571.522 19.6353 591.113 42.7847 591.113H149.209C154.143 591.113 159.034 590.2 163.635 588.42L354.102 514.768C358.704 512.989 363.595 512.076 368.529 512.076H669.695C678.089 512.076 686.271 514.717 693.081 519.625L783.942 585.104C789.412 589.046 795.789 591.541 802.481 592.358L1282.99 651.017C1308.23 654.099 1329.91 633.149 1327.68 607.815L1263 -129.331L30.5 -153Z" fill="#2A8086"/>
</g>
<defs>
<clipPath id="clip0">
<rect width="1332" height="657" fill="white"/>
</clipPath>
</defs>
</svg>
