<svg width="78" height="61" viewBox="0 0 78 61" fill="none" xmlns="http://www.w3.org/2000/svg">
<path fill-rule="evenodd" clip-rule="evenodd" d="M21.3872 42.1663V35.7616H32.6705C32.9058 35.7616 33.1365 35.7776 33.3674 35.7936C33.3943 35.7954 33.4212 35.7973 33.4481 35.7991L31.8173 38.9639H24.611V42.1663C24.611 46.5807 28.2265 50.1722 32.6705 50.1722H33.4764H40.7299V46.9698C40.7299 43.4696 38.4427 40.5202 35.2867 39.4362L33.5048 35.8023C39.3366 36.2298 43.9537 41.0711 43.9537 46.9698V50.1722C43.9537 51.9382 42.5079 53.3745 40.7299 53.3745H32.6705C26.4502 53.3745 21.3872 48.3452 21.3872 42.1663ZM60.8503 35.8023C60.8551 35.7942 60.8786 35.7616 60.8786 35.7616L60.907 35.7991C60.9339 35.7973 60.9608 35.7954 60.9877 35.7936C61.2186 35.7776 61.4493 35.7616 61.6846 35.7616H72.9679V42.1663C72.9679 48.3452 67.9049 53.3745 61.6846 53.3745H53.6251C51.8472 53.3745 50.4013 51.9382 50.4013 50.1722V46.9698C50.4013 41.0711 55.0185 36.2298 60.8503 35.8023ZM69.7441 38.9639H62.5378C62.9601 40.1088 63.2965 41.4858 63.2965 42.9669C63.2965 46.9458 60.8786 50.1722 60.8786 50.1722C60.8786 50.1722 58.4608 46.9458 58.4608 42.9669C58.4608 41.6763 58.7251 40.4833 59.0684 39.4362C55.9123 40.5202 53.6251 43.4696 53.6251 46.9698V50.1722H60.8786H61.6846C66.1286 50.1722 69.7441 46.5807 69.7441 42.1663V38.9639Z" fill="#C5E1E6"/>
<path d="M33.5048 35.8023C33.4999 35.7942 33.4764 35.7616 33.4764 35.7616L33.4481 35.7991L31.8173 38.9639C31.395 40.1088 31.0586 41.4858 31.0586 42.9669C31.0586 46.9458 33.4764 50.1722 33.4764 50.1722C33.4764 50.1722 35.8943 46.9458 35.8943 42.9669C35.8943 41.6763 35.63 40.4833 35.2867 39.4362L33.5048 35.8023Z" fill="#C5E1E6"/>
<path d="M7.44774 24.2516C5.48516 24.2516 3.9671 23.7484 2.89355 22.7419C1.82 21.7187 1.24129 20.3265 1.15742 18.5652L1.13226 17.4581L1.15742 16.351C1.24129 14.6065 1.82839 13.2226 2.91871 12.1994C4.00903 11.1761 5.51871 10.6645 7.44774 10.6645C9.37677 10.6645 10.8865 11.1761 11.9768 12.1994C13.0671 13.2226 13.6542 14.6065 13.7381 16.351C13.7548 16.5523 13.7632 16.9213 13.7632 17.4581C13.7632 17.9948 13.7548 18.3639 13.7381 18.5652C13.6542 20.3265 13.0755 21.7187 12.0019 22.7419C10.9284 23.7484 9.41032 24.2516 7.44774 24.2516ZM7.44774 21.7606C8.33677 21.7606 9.02452 21.4839 9.51097 20.9303C9.99742 20.36 10.2658 19.5297 10.3161 18.4394C10.3329 18.2716 10.3413 17.9445 10.3413 17.4581C10.3413 16.9716 10.3329 16.6445 10.3161 16.4768C10.2658 15.3865 9.99742 14.5645 9.51097 14.011C9.02452 13.4406 8.33677 13.1555 7.44774 13.1555C6.55871 13.1555 5.87097 13.4406 5.38452 14.011C4.89806 14.5645 4.62968 15.3865 4.57936 16.4768L4.55419 17.4581L4.57936 18.4394C4.62968 19.5297 4.89806 20.36 5.38452 20.9303C5.87097 21.4839 6.55871 21.7606 7.44774 21.7606ZM17.1549 24C16.9871 24 16.8446 23.9413 16.7271 23.8239C16.6097 23.7065 16.551 23.5639 16.551 23.3961V11.52C16.551 11.3523 16.6097 11.2097 16.7271 11.0923C16.8446 10.9748 16.9871 10.9161 17.1549 10.9161H19.2181C19.3859 10.9161 19.5284 10.9748 19.6459 11.0923C19.7633 11.2097 19.822 11.3523 19.822 11.52V12.5516C20.8117 11.2935 22.2123 10.6645 24.0239 10.6645C25.5671 10.6645 26.7917 11.1761 27.6975 12.1994C28.6033 13.2058 29.0562 14.5813 29.0562 16.3258V23.3961C29.0562 23.5639 28.9975 23.7065 28.8801 23.8239C28.7794 23.9413 28.6368 24 28.4523 24H26.2381C26.0704 24 25.9278 23.9413 25.8104 23.8239C25.693 23.7065 25.6342 23.5639 25.6342 23.3961V16.4768C25.6342 15.4871 25.391 14.7239 24.9046 14.1871C24.4349 13.6335 23.7471 13.3568 22.8413 13.3568C21.9523 13.3568 21.2478 13.6335 20.7278 14.1871C20.2246 14.7406 19.973 15.5039 19.973 16.4768V23.3961C19.973 23.5639 19.9142 23.7065 19.7968 23.8239C19.6962 23.9413 19.5536 24 19.3691 24H17.1549ZM32.8813 24C32.7135 24 32.571 23.9413 32.4535 23.8239C32.3361 23.7065 32.2774 23.5639 32.2774 23.3961V6.73935C32.2774 6.55484 32.3361 6.41226 32.4535 6.31161C32.571 6.19419 32.7135 6.13548 32.8813 6.13548H34.9697C35.1542 6.13548 35.2968 6.19419 35.3974 6.31161C35.5148 6.41226 35.5735 6.55484 35.5735 6.73935V23.3961C35.5735 23.5639 35.5148 23.7065 35.3974 23.8239C35.2968 23.9413 35.1542 24 34.9697 24H32.8813ZM39.4144 8.75226C39.2466 8.75226 39.1041 8.69355 38.9866 8.57613C38.8692 8.45871 38.8105 8.31613 38.8105 8.14839V6.33677C38.8105 6.16903 38.8692 6.02645 38.9866 5.90903C39.1041 5.79161 39.2466 5.7329 39.4144 5.7329H41.7041C41.8718 5.7329 42.0144 5.79161 42.1318 5.90903C42.266 6.02645 42.3331 6.16903 42.3331 6.33677V8.14839C42.3331 8.31613 42.2744 8.45871 42.157 8.57613C42.0395 8.69355 41.8886 8.75226 41.7041 8.75226H39.4144ZM39.515 24C39.3473 24 39.2047 23.9413 39.0873 23.8239C38.9699 23.7065 38.9111 23.5639 38.9111 23.3961V11.52C38.9111 11.3523 38.9699 11.2097 39.0873 11.0923C39.2047 10.9748 39.3473 10.9161 39.515 10.9161H41.6034C41.7879 10.9161 41.9305 10.9748 42.0311 11.0923C42.1486 11.1929 42.2073 11.3355 42.2073 11.52V23.3961C42.2073 23.5639 42.1486 23.7065 42.0311 23.8239C41.9305 23.9413 41.7879 24 41.6034 24H39.515ZM46.1493 24C45.9816 24 45.839 23.9413 45.7216 23.8239C45.6042 23.7065 45.5455 23.5639 45.5455 23.3961V11.52C45.5455 11.3523 45.6042 11.2097 45.7216 11.0923C45.839 10.9748 45.9816 10.9161 46.1493 10.9161H48.2126C48.3803 10.9161 48.5229 10.9748 48.6403 11.0923C48.7577 11.2097 48.8164 11.3523 48.8164 11.52V12.5516C49.8061 11.2935 51.2068 10.6645 53.0184 10.6645C54.5616 10.6645 55.7861 11.1761 56.6919 12.1994C57.5977 13.2058 58.0506 14.5813 58.0506 16.3258V23.3961C58.0506 23.5639 57.9919 23.7065 57.8745 23.8239C57.7739 23.9413 57.6313 24 57.4468 24H55.2326C55.0648 24 54.9223 23.9413 54.8048 23.8239C54.6874 23.7065 54.6287 23.5639 54.6287 23.3961V16.4768C54.6287 15.4871 54.3855 14.7239 53.899 14.1871C53.4293 13.6335 52.7416 13.3568 51.8358 13.3568C50.9468 13.3568 50.2423 13.6335 49.7223 14.1871C49.219 14.7406 48.9674 15.5039 48.9674 16.4768V23.3961C48.9674 23.5639 48.9087 23.7065 48.7913 23.8239C48.6906 23.9413 48.5481 24 48.3635 24H46.1493ZM66.8828 24.2516C65.0209 24.2516 63.5364 23.7148 62.4293 22.6413C61.339 21.551 60.7603 20.0245 60.6932 18.0619L60.668 17.4329L60.6932 16.8039C60.777 14.8916 61.3641 13.3903 62.4545 12.3C63.5616 11.2097 65.0377 10.6645 66.8828 10.6645C68.8622 10.6645 70.3886 11.2684 71.4622 12.4761C72.5525 13.6839 73.0977 15.2942 73.0977 17.3071V17.8355C73.0977 18.0032 73.039 18.1458 72.9216 18.2632C72.8041 18.3806 72.6532 18.4394 72.4686 18.4394H64.1151V18.6406C64.1486 19.5632 64.4003 20.3432 64.8699 20.9806C65.3564 21.6013 66.019 21.9116 66.8577 21.9116C67.8474 21.9116 68.6441 21.5258 69.248 20.7542C69.399 20.5697 69.5164 20.4523 69.6003 20.4019C69.7009 20.3516 69.8435 20.3265 70.028 20.3265H72.1919C72.3428 20.3265 72.4686 20.3768 72.5693 20.4774C72.6867 20.5613 72.7454 20.6703 72.7454 20.8045C72.7454 21.2071 72.5022 21.6852 72.0157 22.2387C71.5461 22.7755 70.8667 23.2452 69.9777 23.6477C69.0886 24.0503 68.057 24.2516 66.8828 24.2516ZM69.6757 16.3258V16.2503C69.6757 15.2606 69.4241 14.4639 68.9209 13.86C68.4345 13.2561 67.7551 12.9542 66.8828 12.9542C66.0106 12.9542 65.3312 13.2561 64.8448 13.86C64.3583 14.4639 64.1151 15.2606 64.1151 16.2503V16.3258H69.6757Z" fill="#0D444D"/>
<path d="M1.58516 54.1935C1.40065 54.1935 1.24968 54.1348 1.13226 54.0174C1.03161 53.8999 0.98129 53.749 0.98129 53.5644V51.8032C0.98129 51.518 1.04 51.2999 1.15742 51.149C1.27484 50.9812 1.34194 50.889 1.35871 50.8722L10.1148 39.5496H1.83677C1.66903 39.5496 1.52645 39.4909 1.40903 39.3735C1.29161 39.2561 1.2329 39.1135 1.2329 38.9457V37.2096C1.2329 37.0251 1.28323 36.8741 1.38387 36.7567C1.50129 36.6393 1.65226 36.5806 1.83677 36.5806H13.8639C14.0484 36.5806 14.1994 36.6393 14.3168 36.7567C14.4342 36.8741 14.4929 37.0251 14.4929 37.2096V38.9457C14.4929 39.2477 14.3839 39.5412 14.1658 39.8264L5.58581 51.1993H14.1406C14.3252 51.1993 14.4761 51.258 14.5935 51.3754C14.711 51.4928 14.7697 51.6438 14.7697 51.8283V53.5896C14.7697 53.7741 14.711 53.9251 14.5935 54.0425C14.4761 54.1432 14.3252 54.1935 14.1406 54.1935H1.58516Z" fill="#0D444D"/>
</svg>
