<svg width="2037" height="564" fill="none" xmlns="http://www.w3.org/2000/svg"><path d="M1891.56 272.512l98.77 44.167a39.999 39.999 0 0123.67 36.515V462.84c0 22.091-17.91 40-40 40h-181.6c-6.5 0-12.91 1.584-18.66 4.617l-98.48 51.926A40.02 40.02 0 011656.6 564h-294.96c-8.84 0-17.44-2.929-24.44-8.329l-57.68-44.502c-7-5.4-15.59-8.329-24.44-8.329h-215.03c-5.36 0-10.67 1.076-15.6 3.166l-127.124 53.828A40.005 40.005 0 01881.729 563H705.36a40 40 0 01-26.191-9.767l-46.895-40.626a39.996 39.996 0 00-26.191-9.767H237.527a40.003 40.003 0 01-23.801-7.852L77.905 394.432a40.003 40.003 0 00-23.801-7.852H40c-22.091 0-40-17.908-40-40V246.26c0-22.092 17.909-40 40-40h8.1a40.002 40.002 0 0031.209-14.98l113.682-141.8a39.999 39.999 0 0131.208-14.98H640.95c20.487 0 37.662 15.479 39.785 35.856l5.973 57.34c2.123 20.377 19.298 35.856 39.785 35.856h338.887c7.59 0 15.02-2.16 21.43-6.228l172.1-109.232a39.986 39.986 0 0121.43-6.229h477.4c16.19 0 30.79 9.769 36.97 24.74l76.21 184.653a39.963 39.963 0 0020.64 21.256z" fill="#2A8086"/><path d="M1914.84 240.027l98.64 44.591a39.998 39.998 0 0123.52 36.449V432.32c0 22.091-17.91 40-40 40h-181.05c-6.56 0-13.02 1.613-18.81 4.698l-98.13 52.284A40.002 40.002 0 011680.2 534h-294.13a40 40 0 01-24.59-8.453l-57.44-44.774a39.978 39.978 0 00-24.59-8.453h-214.38c-5.4 0-10.76 1.097-15.73 3.225l-126.721 54.221a39.998 39.998 0 01-15.736 3.225H731.107a40.001 40.001 0 01-26.348-9.903l-46.68-40.865a40 40 0 00-26.347-9.903H264.193a40.005 40.005 0 01-23.962-7.971l-135.41-101.305a40 40 0 00-23.962-7.972H67c-22.091 0-40-17.908-40-40V213.219c0-22.091 17.909-40 40-40h7.84a40 40 0 0031.337-15.139L219.582 15.14A40 40 0 01250.918 0h415.649c20.503 0 37.687 15.503 39.789 35.898l6.015 58.352c2.103 20.396 19.286 35.899 39.789 35.899h293.28c7.47 0 14.8-2.096 21.15-6.049l176.76-110.115a40.002 40.002 0 0121.15-6.05h516.67c16.24 0 30.86 9.819 37.02 24.848l76.11 185.948a39.976 39.976 0 0020.54 21.296z" fill="#2A808D" fill-opacity=".3"/><path d="M1837.72 232.471h-8.29l3.56 34.732.78 27.629h9.48l-3.95-27.629-1.58-34.732zm4.38 67.097h-6.66c-.47 0-.83.404-.79.87l3.47 33.863.76 26.861a.8.8 0 00.79.767h7.8c.48 0 .85-.426.78-.901l-3.82-26.727-1.54-33.98a.793.793 0 00-.79-.753zm16.13 23.681h-7.6c-.46 0-.83.399-.78.861l1.63 17.968v16.21c0 .469.41.835.88.785l8.09-.865a.794.794 0 00.7-.911l-2.5-15.426c-.01-.048-.01-.095-.01-.143l.38-17.673a.791.791 0 00-.79-.806zm-11 43.416h-6.66c-.47 0-.83.404-.79.87l3.46 33.797a.29.29 0 010 .131l-.73 11.33c-.03.455.33.84.79.84h7.67c.5 0 .87-.452.78-.939l-2.18-11.24c0-.037-.01-.076-.01-.114l-1.54-33.921a.793.793 0 00-.79-.754zm-22.38 14.515c4.6-2.739 11.18-11.915 11.66-18.858.03-.435-.32-.707-.68-.468-2.87 1.879-11.72 11.653-11.96 18.748-.01.53.53.849.98.578zm-3.06-26.214c1.69 4.898 8.23 5.71 12.78 5.51.29-.013.58-.199.56-.493-.11-2.313-7.67-5.511-12.63-5.907a.674.674 0 00-.71.89zm25.64-41.588c5.73-1.23 15.47-8.305 17.76-14.956.15-.412-.12-.782-.54-.673-3.52.908-15.98 7.932-17.99 14.809-.14.491.27.928.77.82zm79.06 21.159c-3.45 4.731-13.88 10.745-20.89 10.138-.43-.038-.66-.43-.39-.772 2.26-2.846 13.75-11.371 20.84-10.406.51.068.74.628.44 1.04zm9.97-82.392c-6.16 5.538-22.74 10.603-31.71 7.145-.4-.156-.54-.606-.21-.892 3.51-3.045 22.87-11.569 31.76-7.388.46.213.54.8.16 1.135zm-25.53-17.883c.4 6.479-4.2 18.83-10.46 22.815-.37.234-.8.069-.81-.366-.11-3.896 3.68-19.328 10.28-22.998.44-.243.95.05.99.549zm11.69 43.13c-2.96-6.248-12.72-15.071-19.38-15.117-.44-.003-.72.377-.52.765 1.84 3.611 12.64 15.809 19.38 15.305.47-.035.72-.526.52-.953zm-47.2-46.025l-8.27-.475 1.55 34.879-.79 27.628 9.45.544-2.35-27.81.41-34.766zm24.23-22.028l-8.18-1.339-2.11 34.85-3.68 27.393 9.34 1.531.57-27.903 4.06-34.532zm9.42 73.28l-10.69-1.996-2.88 34.82-4.91 27.207 12.21 2.282.84-27.968 5.43-34.345zm-33.12 15.986l-6.65-.382a.793.793 0 00-.84.823l1.52 34.006-.78 26.862c-.01.427.32.786.75.81l7.78.447c.48.028.87-.376.83-.854l-2.28-26.903.41-34.011a.79.79 0 00-.74-.798zm17.17-22.343l-6.57-1.076a.78.78 0 00-.91.731l-2.06 33.978-3.58 26.632c-.06.424.23.816.65.885l7.7 1.259c.47.078.9-.282.91-.763l.55-26.993 3.97-33.782a.789.789 0 00-.66-.871zm7.42 73.07l-9.07-1.695a.818.818 0 00-.96.73l-2.8 33.924-4.86 28.675c-.07.443.24.848.69.889l10.17.912a.81.81 0 00.88-.769l1.26-28.185 5.31-33.612a.766.766 0 00-.62-.869zm-23.31 16.555l-6.66-.383a.784.784 0 00-.83.822l1.13 26.331v.114l-1.89 18.495c-.04.435.28.823.71.866l10.11.99c.51.049.93-.385.86-.888l-2.61-20.052-.07-25.51a.798.798 0 00-.75-.785zm-21.88-89.793c-2.08 6.184 4.38 12.989 9.37 16.926.23.178.55.23.74.014 1.86-2.115-3.94-12.374-8.97-17.201a.687.687 0 00-1.14.261zm61.78 89.025c-5.98-.417-9.9-8.51-11.79-14.311-.09-.271-.03-.595.24-.685 2.45-.82 9.54 7.871 12.21 14.025.21.481-.13 1.008-.66.971zm-57.04-2.828h-7.6c-.46 0-.82.399-.78.861l1.63 17.967v31.241c0 .469.41.835.88.785l8.15-.871a.798.798 0 00.71-.852l-2.58-30.581.38-17.744a.791.791 0 00-.79-.806z" fill="#216E7A"/><circle cx="131.066" cy="234.214" r="65.066" fill="#216E7A"/><circle cx="131.066" cy="189.066" r="65.066" fill="#216E7A"/><rect x="120.474" y="235.974" width="15.132" height="118.026" rx="7.566" fill="#1D6874"/></svg>