<svg xmlns="http://www.w3.org/2000/svg" xmlns:xlink="http://www.w3.org/1999/xlink"><symbol id="icon-feedback" viewBox="0 0 24 24">
<path d="M4 21V8C4 7.20435 4.31607 6.44129 4.87868 5.87868C5.44129 5.31607 6.20435 5 7 5H17C17.7956 5 18.5587 5.31607 19.1213 5.87868C19.6839 6.44129 20 7.20435 20 8V14C20 14.7956 19.6839 15.5587 19.1213 16.1213C18.5587 16.6839 17.7956 17 17 17H8L4 21Z" stroke="#19707D" stroke-width="1.5" stroke-linecap="round" stroke-linejoin="round"/>
<path d="M8 9H16" stroke="#19707D" stroke-width="1.5" stroke-linecap="round" stroke-linejoin="round"/>
<path d="M8 13H14" stroke="#19707D" stroke-width="1.5" stroke-linecap="round" stroke-linejoin="round"/>
</symbol><symbol id="icon-heart" viewBox="0 0 24 24">
<path d="M19.513 12.5834L12.013 20.0114L4.513 12.5834C4.0183 12.102 3.62864 11.5234 3.36854 10.884C3.10845 10.2447 2.98356 9.55836 3.00173 8.86834C3.01991 8.17832 3.18076 7.49954 3.47415 6.87474C3.76755 6.24994 4.18713 5.69266 4.70648 5.23799C5.22583 4.78331 5.8337 4.4411 6.49181 4.23289C7.14991 4.02468 7.844 3.95499 8.53036 4.02821C9.21673 4.10143 9.8805 4.31596 10.4799 4.65831C11.0792 5.00066 11.6012 5.46341 12.013 6.01741C12.4265 5.46743 12.9491 5.00873 13.5481 4.67001C14.1471 4.3313 14.8095 4.11986 15.4939 4.04893C16.1784 3.978 16.8701 4.04911 17.5258 4.2578C18.1815 4.46649 18.787 4.80828 19.3045 5.26177C19.8221 5.71526 20.2404 6.27069 20.5334 6.8933C20.8264 7.51591 20.9877 8.19229 21.0073 8.88012C21.0269 9.56794 20.9043 10.2524 20.6471 10.8907C20.39 11.5289 20.0039 12.1072 19.513 12.5894" stroke="#19707D" stroke-width="1.5" stroke-linecap="round" stroke-linejoin="round"/>
</symbol><symbol id="icon-user" viewBox="0 0 24 24">
<path d="M12 2C9.24746 2 7 4.24746 7 7C7 9.75254 9.24746 12 12 12C14.7525 12 17 9.75254 17 7C17 4.24746 14.7525 2 12 2ZM12 3.5C13.9419 3.5 15.5 5.05812 15.5 7C15.5 8.94188 13.9419 10.5 12 10.5C10.0581 10.5 8.5 8.94188 8.5 7C8.5 5.05812 10.0581 3.5 12 3.5ZM5.98926 14C4.89935 14 4 14.8994 4 15.9893V16.75C4 18.5521 5.13963 19.9461 6.65332 20.7812C8.16701 21.6164 10.0841 22 12 22C13.9159 22 15.833 21.6164 17.3467 20.7812C18.6373 20.0692 19.6087 18.9313 19.8809 17.5H20.001V15.9893C20.001 14.8994 19.1006 14 18.0107 14H5.98926ZM5.98926 15.5H18.0107C18.2898 15.5 18.501 15.7102 18.501 15.9893V16H18.5V16.75C18.5 17.9479 17.8271 18.8039 16.6221 19.4688C15.417 20.1336 13.7091 20.5 12 20.5C10.2909 20.5 8.58299 20.1336 7.37793 19.4688C6.17287 18.8039 5.5 17.9479 5.5 16.75V15.9893C5.5 15.7102 5.71016 15.5 5.98926 15.5Z" fill="white"/>
<path d="M12 2C9.24746 2 7 4.24746 7 7C7 9.75254 9.24746 12 12 12C14.7525 12 17 9.75254 17 7C17 4.24746 14.7525 2 12 2ZM5.98926 14C4.89935 14 4 14.8994 4 15.9893V16.75C4 18.5521 5.13963 19.9461 6.65332 20.7812C8.16701 21.6164 10.0841 22 12 22C13.9159 22 15.833 21.6164 17.3467 20.7812C18.6373 20.0692 19.6087 18.9313 19.8809 17.5H20.001V15.9893C20.001 14.8994 19.1006 14 18.0107 14H5.98926Z" fill="white"/>
</symbol></svg>