<svg width="2014" height="523" fill="none" xmlns="http://www.w3.org/2000/svg"><path d="M127.95 173.296L12.166 285.477A39.997 39.997 0 000 314.204V432.84c0 22.091 17.909 40 40 40h935.221c4.536 0 9.039.771 13.316 2.281l129.153 45.597A40.004 40.004 0 001131 523h186.33c4.13 0 8.23-.639 12.16-1.894l242.37-77.372a40.076 40.076 0 0112.17-1.894h356.29c14.07 0 27.1-7.392 34.32-19.467l33.69-56.309a40.022 40.022 0 005.67-20.534V216.259c0-22.091-17.91-40-40-40h-14.1c-8.57 0-16.92-2.752-23.81-7.851l-134.81-99.811a39.987 39.987 0 00-26.04-7.79l-181.76 10.178a40.024 40.024 0 00-26.58 12.191l-114.39 118.792a39.994 39.994 0 01-28.81 12.254h-87.48c-8.24 0-16.28-2.545-23.02-7.286l-93.95-66.098a39.952 39.952 0 00-23.01-7.286H996.378a40 40 0 00-25.364 9.07L831.117 257.349a39.998 39.998 0 01-25.364 9.071H626.477a39.996 39.996 0 01-23.957-7.968l-118.277-88.461a40.004 40.004 0 00-23.957-7.967H155.784a39.999 39.999 0 00-27.834 11.272z" fill="#2A808D" fill-opacity=".3"/><path d="M127.95 143.296L12.166 255.477A39.997 39.997 0 000 284.204V402.84c0 22.091 17.909 40 40 40h935.221c4.536 0 9.039.771 13.316 2.281l129.153 45.597A40.004 40.004 0 001131 493h186.33c4.13 0 8.23-.639 12.16-1.894l242.37-77.372a40.076 40.076 0 0112.17-1.894h354.74c13.82 0 26.67-7.14 33.97-18.883l35.23-56.679a40 40 0 006.03-21.117V186.259c0-22.091-17.91-40-40-40h-14.1c-8.57 0-16.92-2.752-23.81-7.851l-134.81-99.811a39.987 39.987 0 00-26.04-7.79l-181.76 10.178a40.024 40.024 0 00-26.58 12.191l-114.39 118.792a39.994 39.994 0 01-28.81 12.254h-87.48c-8.24 0-16.28-2.545-23.02-7.286l-93.95-66.098a39.952 39.952 0 00-23.01-7.286H996.378a40 40 0 00-25.364 9.07L831.117 227.349a39.998 39.998 0 01-25.364 9.071H626.477a39.996 39.996 0 01-23.957-7.968l-118.277-88.461a40.004 40.004 0 00-23.957-7.967H155.784a39.999 39.999 0 00-27.834 11.272z" fill="#2A8086"/><path d="M128.177 104.983L13.249 208.365A40.001 40.001 0 000 238.104v105.188c0 22.092 17.909 40 40 40h61.8a39.985 39.985 0 0015.159-2.984l189.819-77.739a40.01 40.01 0 0115.16-2.984h300.148c8.77 0 17.297 2.882 24.268 8.203l88.178 67.301a39.997 39.997 0 0024.268 8.203h212.367a40.002 40.002 0 0120.305 5.537l123.278 72.634a40.042 40.042 0 0020.31 5.537h180.55c5.25 0 10.44-1.032 15.29-3.038l109.81-45.424 132.19-33.986c3.25-.836 6.6-1.26 9.96-1.26h194.39c8.09 0 15.99-2.453 22.65-7.036l136.56-93.866a40.012 40.012 0 0122.66-7.036H1974c22.09 0 40-17.909 40-40v-87.415c0-22.092-17.91-40-40-40h-14.88c-8.09 0-15.99-2.454-22.66-7.037L1800.85 7.687a39.98 39.98 0 00-24.73-6.983l-183.39 9.534a40 40 0 00-25.69 11.15L1452.33 131.98a40.01 40.01 0 01-27.76 11.204h-89.11a39.97 39.97 0 01-21.87-6.512l-94.72-61.873a40.028 40.028 0 00-21.88-6.511H995.569a40.002 40.002 0 00-24.232 8.175L830.794 183.47a40.003 40.003 0 01-24.232 8.175H625.699a40 40 0 01-22.814-7.144l-119.007-82.636a40 40 0 00-22.815-7.144H154.928a40 40 0 00-26.751 10.261z" fill="#2A808D" fill-opacity=".3"/><path d="M38.722 85.47h-8.289l3.552 34.733.79 27.629h9.472L40.3 120.203l-1.578-34.732zm4.376 67.098h-6.66a.79.79 0 00-.785.87l3.463 33.863.768 26.861a.79.79 0 00.789.767h7.795a.79.79 0 00.782-.901l-3.819-26.727-1.544-33.98a.79.79 0 00-.789-.753zm16.131 23.681h-7.597a.79.79 0 00-.786.861l1.637 17.968v16.21a.79.79 0 00.873.785l8.094-.865a.79.79 0 00.696-.911l-2.494-15.426a.8.8 0 01-.01-.143l.376-17.673a.79.79 0 00-.79-.806zM48.23 219.665h-6.66a.79.79 0 00-.786.87l3.457 33.797a.787.787 0 01.002.131l-.73 11.33a.79.79 0 00.787.84h7.674a.79.79 0 00.775-.939l-2.176-11.24a.775.775 0 01-.013-.114l-1.542-33.921a.79.79 0 00-.789-.754zM25.855 234.18c4.593-2.739 11.175-11.915 11.655-18.858.03-.435-.32-.707-.684-.468-2.865 1.879-11.716 11.653-11.951 18.748a.638.638 0 00.98.578zm-3.064-26.214c1.69 4.898 8.225 5.71 12.777 5.51.295-.013.58-.199.566-.494-.119-2.312-7.67-5.51-12.633-5.906-.497-.04-.873.419-.71.89zm25.643-41.588c5.727-1.23 15.461-8.305 17.759-14.956.142-.412-.123-.782-.545-.673-3.52.908-15.982 7.932-17.989 14.809a.647.647 0 00.775.82zm79.055 21.159c-3.454 4.731-13.877 10.745-20.888 10.138-.434-.038-.664-.431-.393-.772 2.262-2.847 13.749-11.371 20.847-10.407a.647.647 0 01.434 1.041zm9.974-82.392c-6.16 5.538-22.74 10.603-31.708 7.145-.407-.156-.544-.606-.214-.892 3.508-3.045 22.868-11.57 31.762-7.388.453.213.532.8.16 1.135zm-25.538-17.883c.405 6.48-4.2 18.83-10.458 22.815-.368.234-.799.069-.811-.366-.108-3.896 3.686-19.328 10.289-22.998.437-.243.949.05.98.55zm11.694 43.13c-2.956-6.248-12.716-15.072-19.381-15.117-.436-.003-.716.377-.518.765 1.844 3.61 12.635 15.809 19.378 15.305.471-.035.723-.526.521-.953zM76.424 84.367l-8.275-.475 1.554 34.879-.796 27.628 9.457.543-2.356-27.809.416-34.766zm24.223-22.027L92.467 61l-2.106 34.85-3.686 27.393 9.348 1.531.57-27.903 4.054-34.532zm9.422 73.279l-10.687-1.996-2.88 34.82-4.917 27.207 12.214 2.282.845-27.968 5.425-34.345zm-33.124 15.986l-6.649-.382a.79.79 0 00-.834.823l1.516 34.006-.774 26.861a.79.79 0 00.744.811l7.782.447a.789.789 0 00.832-.854l-2.28-26.903.407-34.011a.79.79 0 00-.744-.798zm17.179-22.343l-6.572-1.076a.789.789 0 00-.916.731l-2.054 33.978-3.583 26.632a.789.789 0 00.654.884l7.693 1.26a.79.79 0 00.917-.763l.55-26.993 3.967-33.782a.79.79 0 00-.656-.871zm7.418 73.07l-9.07-1.695a.82.82 0 00-.96.73l-2.807 33.925-4.85 28.674a.761.761 0 00.688.889l10.164.912a.818.818 0 00.888-.769l1.253-28.185 5.309-33.611a.76.76 0 00-.615-.87zm-23.311 16.555l-6.66-.383a.79.79 0 00-.835.822l1.137 26.331a.79.79 0 01-.003.115l-1.887 18.494a.79.79 0 00.708.866l10.113.99a.79.79 0 00.86-.888l-2.617-20.052-.072-25.509a.79.79 0 00-.744-.786zM56.35 129.094c-2.082 6.183 4.382 12.989 9.373 16.925.226.179.552.231.742.014 1.859-2.114-3.942-12.373-8.972-17.2-.373-.358-.977-.23-1.143.261zm61.784 89.025c-5.987-.417-9.904-8.51-11.794-14.311-.088-.271-.026-.595.244-.685 2.443-.82 9.534 7.871 12.206 14.025.208.481-.133 1.008-.656.971zm-57.044-2.828h-7.596a.79.79 0 00-.786.861l1.637 17.967v31.241a.79.79 0 00.873.785l8.155-.871a.79.79 0 00.703-.852l-2.573-30.581.377-17.744a.79.79 0 00-.79-.806z" fill="#216E7A"/><path d="M1139.51 283.5c1.24-18.343-15.09-45.506-20.5-46.5 0 0-30 46.5-44 74.5.44 4.344 2.26 6.642 2 11-.27 4.5-5.66 7.041-3.5 11 2.36 4.342 12.5 2 12.5 2 14-2.5 15-23 16.5-23.5 2.5 3.5 5.14 14.5 4 18.5-1 3.5-4.14 5.232-3 8.5 1.26 3.637 5 5 8.5 5 8.5.5 15.5-6 20-12 8.5-13 8.5-35.5 7.5-48.5z" fill="#0A5D69"/><rect x="1011" y="221" width="123" height="92" rx="46" fill="#F3F6F7"/><path d="M1058.42 311.5c9.5-28 3.5-76-19-86.5-8.33.336-21 8-21 8s-28.971 34.921-31.996 62c.5 10.5 6.501 27.5 4.5 42-2.5 2.39-3 3-4.5 5.5-2 4 3.5 6.5 7.5 6.5 5 0 11.376-1.841 16.496-6.5 6.63-6.027 6-14 8-21.5 3.5 4.5 3 21.5.5 25.5-3.5 6-3 8-.5 10.5 7 3.833 20.5 0 26.5-8 8.5-13.5 9.22-22 13.5-37.5z" fill="#0A5D69"/><circle cx="984.5" cy="223.5" r="13.5" fill="#0A5D69"/><circle cx="1025.5" cy="217.5" r="13.5" fill="#0A5D69"/><rect x="971" y="213" width="79" height="71" rx="35.5" fill="#F3F6F7"/><ellipse cx="1025.63" cy="242.602" rx="8.859" ry="11.603" transform="rotate(-31.876 1025.63 242.602)" fill="#0A5D69"/><ellipse rx="8.859" ry="11.603" transform="scale(-1 1) rotate(-11.832 720.8 4913.084)" fill="#0A5D69"/><path d="M1004.5 261c.73 3.72 7.5 5.5 8.5 5.5s7.48-5.611 5.5-9.5c-2-3.5-14.5-.5-14 4z" fill="#0A5D69"/><ellipse cx="994.5" cy="250" rx="2.5" ry="3" fill="#F3F6F7"/><ellipse cx="1021.5" cy="242" rx="2.5" ry="3" fill="#F3F6F7"/><path d="M1081.18 122h-10.5l4.5 44 1 35h12l-5-35-2-44zm5.55 85h-8.44a.998.998 0 00-.99 1.102l4.38 42.898.98 34.029a.99.99 0 001 .971h9.87c.61 0 1.08-.539.99-1.141L1089.68 251l-1.95-43.045a1.008 1.008 0 00-1-.955zm20.43 30h-9.62c-.59 0-1.05.505-1 1.091l2.08 22.761v20.535a.995.995 0 001.1.995l10.26-1.096a1 1 0 00.88-1.154l-3.16-19.542c-.01-.06-.02-.12-.01-.181l.47-22.388c.01-.56-.44-1.021-1-1.021zm-13.93 55h-8.44a.998.998 0 00-.99 1.102l4.37 42.815c.01.055.01.111.01.166l-.93 14.353a.998.998 0 001 1.064h9.72c.63 0 1.1-.573.98-1.19l-2.75-14.238a.713.713 0 01-.02-.145l-1.95-42.972a1.008 1.008 0 00-1-.955zm-28.35 18.387c5.82-3.469 14.16-15.093 14.77-23.889.04-.551-.41-.896-.87-.593-3.63 2.381-14.84 14.762-15.14 23.751a.808.808 0 001.24.731zM1061 277.18c2.14 6.205 10.42 7.233 16.19 6.979.37-.016.73-.252.71-.625-.15-2.93-9.71-6.981-16-7.482a.857.857 0 00-.9 1.128zm32.49-52.685c7.25-1.559 19.58-10.521 22.49-18.946.18-.522-.15-.991-.69-.853-4.46 1.15-20.24 10.049-22.78 18.76-.19.622.34 1.175.98 1.039zm100.15 26.805c-4.38 5.993-17.58 13.612-26.47 12.842-.55-.047-.84-.545-.49-.977 2.86-3.607 17.41-14.406 26.41-13.184.64.087.93.796.55 1.319zm12.63-104.376c-7.8 7.015-28.81 13.431-40.17 9.052-.51-.199-.69-.769-.27-1.131 4.45-3.858 28.97-14.656 40.24-9.359.57.27.67 1.014.2 1.438zm-32.35-22.654c.51 8.207-5.32 23.854-13.25 28.902-.47.297-1.01.088-1.03-.464-.13-4.936 4.67-24.485 13.04-29.135.55-.308 1.2.064 1.24.697zm14.81 54.637c-3.74-7.915-16.11-19.093-24.55-19.15-.55-.004-.91.477-.66.969 2.34 4.574 16.01 20.027 24.55 19.388.6-.044.92-.666.66-1.207zm-59.79-58.305l-10.48-.602 1.97 44.186-1.01 34.999 11.98.689-2.98-35.23.52-44.042zm30.69-27.905L1149.27 91l-2.67 44.149-4.67 34.702 11.84 1.939.73-35.348 5.13-43.745zm11.94 92.832L1158.03 183l-3.65 44.111-6.23 34.466 15.48 2.891 1.07-35.43 6.87-43.509zm-41.96 20.251l-8.43-.484a.994.994 0 00-1.05 1.043l1.92 43.08-.98 34.028c-.02.541.4.996.94 1.027l9.86.566c.6.035 1.1-.476 1.05-1.082l-2.89-34.081.52-43.086c0-.535-.41-.98-.94-1.011zm21.76-28.304l-8.33-1.364a1.005 1.005 0 00-1.16.927l-2.6 43.043-4.54 33.739c-.07.536.3 1.032.83 1.12l9.75 1.596c.6.098 1.14-.358 1.16-.967l.69-34.195 5.03-42.796a.998.998 0 00-.83-1.103zm9.4 92.566l-11.49-2.147c-.6-.111-1.17.324-1.22.924l-3.56 42.977-6.14 36.325c-.1.562.3 1.075.87 1.126l12.88 1.156a1.03 1.03 0 001.12-.975l1.59-35.705 6.72-42.579a.95.95 0 00-.77-1.102zm-29.54 20.972l-8.43-.485c-.59-.034-1.09.45-1.06 1.042l1.44 33.357v.144l-2.39 23.429a.993.993 0 00.89 1.097l12.81 1.254a.997.997 0 001.09-1.124l-3.31-25.403-.09-32.316c0-.529-.42-.965-.95-.995zm-27.71-113.752c-2.64 7.834 5.55 16.456 11.87 21.442.29.226.7.292.94.018 2.35-2.679-4.99-15.675-11.37-21.79-.47-.454-1.24-.291-1.44.33zm78.26 112.779c-7.58-.528-12.54-10.781-14.94-18.129-.11-.343-.03-.754.31-.868 3.1-1.039 12.08 9.971 15.47 17.768.26.609-.17 1.276-.84 1.229zm-72.26-3.582h-9.62c-.59 0-1.05.505-1 1.09l2.08 22.762v39.576a.995.995 0 001.1.995l10.33-1.104a.997.997 0 00.89-1.078l-3.26-38.741.48-22.479a1.001 1.001 0 00-1-1.021z" fill="#216E7A"/><circle cx="1701.07" cy="272.214" r="65.066" fill="#216E7A"/><circle cx="1701.07" cy="227.066" r="65.066" fill="#216E7A"/><rect x="1690.47" y="273.974" width="15.132" height="118.026" rx="7.566" fill="#1D6874"/><circle cx="306.066" cy="156.214" r="65.066" fill="#216E7A"/><circle cx="306.066" cy="111.066" r="65.066" fill="#216E7A"/><rect x="295.474" y="157.974" width="15.132" height="118.026" rx="7.566" fill="#1D6874"/><circle cx="860.697" cy="181.712" r="44.697" fill="#216E7A"/><circle cx="860.697" cy="150.697" r="44.697" fill="#216E7A"/><rect x="853.421" y="182.921" width="10.395" height="81.079" rx="5.197" fill="#1D6874"/></svg>