<svg width="2061" height="803" viewBox="0 0 2061 803" fill="none" xmlns="http://www.w3.org/2000/svg">
<g clip-path="url(#clip0)">
<path d="M30.5 -174L10.5 497L2.50087 632.482C1.14419 655.46 19.413 674.84 42.4313 674.84H148.243C153.802 674.84 159.3 673.681 164.387 671.437L353.351 588.082C358.437 585.838 363.936 584.679 369.495 584.679H668.275C677.541 584.679 686.519 587.896 693.677 593.78L785.135 668.966C789.836 672.831 795.357 675.572 801.277 676.981L1166.58 763.913C1169.62 764.635 1172.73 765 1175.84 765H1370.56H1609.59C1614.81 765 1619.98 763.978 1624.81 761.992L1819.35 681.966C1830.32 677.45 1842.74 678.042 1853.23 683.582L1934.68 726.566C1954.77 737.171 1979.65 728.93 1989.44 708.427L2057.1 566.756C2059.67 561.374 2061 555.484 2061 549.519V413.191C2061 393.899 2045.36 378.259 2026.07 378.259C2007.81 378.259 1992.63 364.193 1991.24 345.985L1952 -168.5L30.5 -174Z" fill="#2A8086"/>
<path opacity="0.3" d="M30.5 -144L10.5 527L2.50087 662.482C1.14419 685.46 19.413 704.84 42.4313 704.84H148.243C153.802 704.84 159.3 703.681 164.387 701.437L353.351 618.082C358.437 615.838 363.936 614.679 369.495 614.679H668.275C677.541 614.679 686.519 617.896 693.677 623.78L785.135 698.966C789.836 702.831 795.357 705.572 801.277 706.981L1166.58 793.913C1169.62 794.635 1172.73 795 1175.84 795H1370.56H1609.59C1614.81 795 1619.98 793.978 1624.81 791.992L1818.7 712.229C1830.05 707.563 1842.9 708.359 1853.58 714.388L1943.69 765.25C1964.94 777.243 1991.88 767.584 2000.67 744.824L2058.31 595.534C2060.09 590.938 2061 586.053 2061 581.126V443.191C2061 423.899 2045.36 408.259 2026.07 408.259C2007.81 408.259 1992.63 394.193 1991.24 375.985L1952 -138.5L30.5 -144Z" fill="#2A8086"/>
</g>
<defs>
<clipPath id="clip0">
<rect width="2061" height="803" fill="white"/>
</clipPath>
</defs>
</svg>
