<svg width="2061" height="977" fill="none" xmlns="http://www.w3.org/2000/svg"><path d="M30.5 0l-20 671-8 135.482C1.145 829.46 19.414 848.84 42.432 848.84h105.812a40 40 0 0016.144-3.403l188.964-83.355a39.996 39.996 0 0116.144-3.403h298.78a40.002 40.002 0 0125.402 9.101l91.458 75.186a40 40 0 0016.142 8.015l365.303 86.932a40.09 40.09 0 009.26 1.087h433.75c5.22 0 10.39-1.022 15.22-3.008l194.54-80.026a39.98 39.98 0 0133.88 1.616l81.45 42.984c20.09 10.605 44.97 2.364 54.76-18.139l67.66-141.671a40 40 0 003.9-17.237V587.191c0-19.292-15.64-34.932-34.93-34.932-18.26 0-33.44-14.066-34.83-32.274L1952 5.5 30.5 0z" fill="#2A8086"/><path opacity=".3" d="M30.5 30l-20 671-8 135.482C1.145 859.46 19.414 878.84 42.432 878.84h105.812a40 40 0 0016.144-3.403l188.964-83.355a39.996 39.996 0 0116.144-3.403h298.78a40.002 40.002 0 0125.402 9.101l91.458 75.186a40 40 0 0016.142 8.015l365.303 86.932a40.09 40.09 0 009.26 1.087h433.75c5.22 0 10.39-1.022 15.22-3.008l193.89-79.763a39.999 39.999 0 0134.88 2.159l90.11 50.862c21.25 11.993 48.19 2.334 56.98-20.426l57.64-149.29a39.891 39.891 0 002.69-14.408V617.191c0-19.292-15.64-34.932-34.93-34.932-18.26 0-33.44-14.066-34.83-32.274L1952 35.5 30.5 30z" fill="#2A8086"/></svg>